HIERARCHY
ROOT Hips
{
 OFFSET 0.000000 0.000000 0.000000
 CHANNELS 6 Xposition Yposition Zposition Yrotation Xrotation Zrotation
 JOINT Chest
 {
  OFFSET 0.000000 9.585900 0.002600
  CHANNELS 3 Yrotation Xrotation Zrotation
  JOINT Chest2
  {
   OFFSET 0.000000 9.601200 -0.005300
   CHANNELS 3 Yrotation Xrotation Zrotation
   JOINT Chest3
   {
    OFFSET 0.000000 9.561800 0.000000
    CHANNELS 3 Yrotation Xrotation Zrotation
    JOINT Chest4
    {
     OFFSET 0.000000 9.552100 0.000000
     CHANNELS 3 Yrotation Xrotation Zrotation
     JOINT Neck
     {
      OFFSET 0.000000 14.453000 0.000000
      CHANNELS 3 Yrotation Xrotation Zrotation
      JOINT Head
      {
       OFFSET 0.000000 8.936500 -0.011300
       CHANNELS 3 Yrotation Xrotation Zrotation
       End Site
       {
        OFFSET 0.000000 17.073600 -0.006000
       }
      }
     }
     JOINT RightCollar
     {
      OFFSET -2.921100 9.558500 0.000000
      CHANNELS 3 Yrotation Xrotation Zrotation
      JOINT RightShoulder
      {
       OFFSET -13.519700 0.000000 0.000000
       CHANNELS 3 Yrotation Xrotation Zrotation
       JOINT RightElbow
       {
        OFFSET 0.000000 -29.696600 0.000000
        CHANNELS 3 Yrotation Xrotation Zrotation
        JOINT RightWrist
        {
         OFFSET 0.000000 -24.004700 0.000000
         CHANNELS 3 Yrotation Xrotation Zrotation
         End Site
         {
          OFFSET 0.000000 -17.728500 0.000000
         }
        }
       }
      }
     }
     JOINT LeftCollar
     {
      OFFSET 2.921100 9.558500 0.000000
      CHANNELS 3 Yrotation Xrotation Zrotation
      JOINT LeftShoulder
      {
       OFFSET 13.519700 0.000000 0.000000
       CHANNELS 3 Yrotation Xrotation Zrotation
       JOINT LeftElbow
       {
        OFFSET 0.000000 -29.696600 0.000000
        CHANNELS 3 Yrotation Xrotation Zrotation
        JOINT LeftWrist
        {
         OFFSET 0.000000 -24.004700 0.000000
         CHANNELS 3 Yrotation Xrotation Zrotation
         End Site
         {
          OFFSET 0.000000 -17.728500 0.000000
         }
        }
       }
      }
     }
    }
   }
  }
 }
 JOINT RightHip
 {
  OFFSET -7.771700 -0.012900 -0.001300
  CHANNELS 3 Yrotation Xrotation Zrotation
  JOINT RightKnee
  {
   OFFSET 0.000000 -40.869800 0.001200
   CHANNELS 3 Yrotation Xrotation Zrotation
   JOINT RightAnkle
   {
    OFFSET 0.000000 -39.717900 0.002100
    CHANNELS 3 Yrotation Xrotation Zrotation
    JOINT RightToe
    {
     OFFSET 0.000000 -4.965400 11.033500
     CHANNELS 3 Yrotation Xrotation Zrotation
     End Site
     {
      OFFSET 0.000000 -1.423100 5.872300
     }
    }
   }
  }
 }
 JOINT LeftHip
 {
  OFFSET 7.771700 -0.012900 -0.001300
  CHANNELS 3 Yrotation Xrotation Zrotation
  JOINT LeftKnee
  {
   OFFSET 0.000000 -40.869800 0.001200
   CHANNELS 3 Yrotation Xrotation Zrotation
   JOINT LeftAnkle
   {
    OFFSET 0.000000 -39.717900 0.002100
    CHANNELS 3 Yrotation Xrotation Zrotation
    JOINT LeftToe
    {
     OFFSET 0.000000 -4.965400 11.033500
     CHANNELS 3 Yrotation Xrotation Zrotation
     End Site
     {
      OFFSET 0.000000 -1.423100 5.872300
     }
    }
   }
  }
 }
}
MOTION
Frames: 9
Frame Time: 0.008333
0.000000 85.388000 0.000000 0.000000 -5.767877 0.000000 0.000000 11.653817 0.000000 0.000000 -5.885947 0.000000 0.000000 -0.000000 0.000000 0.000000 -0.000000 0.000000 0.000000 12.528835 0.000000 0.000000 0.711642 0.000000 0.000000 -0.000000 0.000000 0.000000 0.000000 -90.000000 0.000000 -2.309062 0.000000 0.000000 2.309062 0.000000 0.000000 -0.000000 0.000000 0.000000 -0.000000 90.000000 0.000000 -2.309062 0.000000 0.000000 2.309062 0.000000 0.000000 8.520406 0.000000 0.000000 1.905762 0.000000 -0.000000 -4.658285 0.000000 0.000000 -0.000000 0.000000 0.000000 8.520406 0.000000 0.000000 1.905762 0.000000 -0.000000 -4.658285 0.000000 0.000000 -0.000000 0.000000
-48.083578 46.509228 6.651154 177.152410 -31.851457 -2.634075 -0.381710 19.210012 1.375831 -0.079862 2.268127 0.186696 -0.137619 3.762594 0.325300 -0.454911 16.616259 1.399314 -3.554284 21.442598 1.522301 -6.866788 4.156750 3.739865 0.955035 1.964822 -1.400844 6.266692 -5.306314 -16.402078 -48.307992 -58.135094 97.248258 -2.496030 1.848162 -19.589508 -1.369900 1.072649 1.063390 -5.506912 -1.582672 12.150484 66.986492 -68.062964 -105.693591 0.356729 10.900601 13.123014 -2.671579 -55.645399 -8.422180 -151.446444 80.079116 -142.508152 -7.642874 -11.686232 -6.501342 0.012494 -0.251069 0.011452 0.371383 -57.088842 10.018527 -109.402119 82.009608 -113.903686 5.202048 -5.795729 5.026114 0.104862 0.280983 0.022647
-48.083411 46.509787 6.652347 177.158727 -31.845117 -2.629025 -0.393373 19.211160 1.371510 -0.089564 2.289393 0.202463 -0.139780 3.762543 0.323372 -0.458824 16.602813 1.383183 -3.558894 21.402036 1.501902 -6.858832 4.100961 3.710001 0.969737 1.950754 -1.411841 6.258561 -5.319863 -16.431383 -48.367745 -58.129447 97.291591 -2.485688 1.852549 -19.569491 -1.368293 1.078365 1.050986 -5.510473 -1.604561 12.094223 67.022807 -68.083342 -105.691914 0.350169 10.894727 13.175499 -2.653928 -55.652841 -8.433635 -151.454147 80.078933 -142.514573 -7.662914 -11.688696 -6.499270 0.024833 -0.248718 0.014506 0.353910 -57.087305 10.022094 -109.334511 82.020908 -113.844681 5.191977 -5.794330 5.020379 0.097151 0.282793 0.030600
-48.084207 46.509171 6.655453 177.153942 -31.824979 -2.614207 -0.397128 19.197900 1.362807 -0.092053 2.295180 0.207495 -0.140827 3.762961 0.322765 -0.463086 16.603268 1.379790 -3.558665 21.373295 1.485084 -6.854629 4.028918 3.673272 0.986319 1.938152 -1.417696 6.239624 -5.329229 -16.464908 -48.429959 -58.122098 97.341026 -2.468780 1.845925 -19.554940 -1.369189 1.079634 1.039707 -5.518065 -1.619274 12.036727 67.060325 -68.104439 -105.679771 0.331445 10.890049 13.203846 -2.629790 -55.676623 -8.449438 -151.451022 80.086166 -142.520379 -7.662305 -11.682164 -6.493443 0.018547 -0.243887 0.013115 0.367179 -57.103209 10.007050 -109.274375 82.030205 -113.787512 5.184949 -5.788594 5.015284 0.101485 0.282649 0.036211
-48.086698 46.508433 6.658559 177.156650 -31.802915 -2.595937 -0.415520 19.197109 1.357684 -0.089834 2.286662 0.199386 -0.142104 3.763858 0.322615 -0.467162 16.603330 1.374099 -3.555660 21.352026 1.473941 -6.851308 4.000506 3.657246 0.993935 1.925905 -1.423753 6.236416 -5.333126 -16.475565 -48.484219 -58.129412 97.369027 -2.439545 1.829704 -19.548880 -1.365184 1.071057 1.032009 -5.532970 -1.622409 11.977642 67.164060 -68.090040 -105.727099 0.303570 10.884304 13.272960 -2.604092 -55.702637 -8.480841 -151.451557 80.085471 -142.523022 -7.658381 -11.684918 -6.504936 0.015531 -0.237758 0.021865 0.391389 -57.122373 9.974494 -109.230444 82.045619 -113.751490 5.179855 -5.777316 5.020046 0.098432 0.277907 0.038639
-48.088649 46.508714 6.659947 177.154828 -31.792152 -2.581706 -0.425492 19.201847 1.353845 -0.089372 2.284210 0.197057 -0.143143 3.764686 0.322981 -0.473861 16.605221 1.373323 -3.552680 21.328433 1.457096 -6.847833 3.971163 3.639327 0.998238 1.922636 -1.432563 6.231878 -5.355167 -16.505885 -48.527104 -58.114957 97.404103 -2.438753 1.833590 -19.538462 -1.370733 1.073722 1.021218 -5.538494 -1.637365 11.920604 67.176828 -68.107798 -105.701699 0.279417 10.895669 13.282420 -2.585207 -55.720318 -8.503408 -151.476504 80.083266 -142.550727 -7.658114 -11.678068 -6.506317 0.011963 -0.242370 0.020662 0.412200 -57.131077 9.952049 -109.200842 82.048915 -113.725088 5.178771 -5.772214 5.019484 0.096696 0.274080 0.042055
-48.090142 46.509363 6.660622 177.155236 -31.784941 -2.575302 -0.430964 19.201179 1.350739 -0.090669 2.287908 0.199620 -0.145604 3.769138 0.326613 -0.484413 16.622090 1.387782 -3.545082 21.264052 1.417721 -6.830064 3.868879 3.578901 1.011737 1.904194 -1.457330 6.215053 -5.367595 -16.517269 -48.534387 -58.115407 97.421093 -2.429138 1.814889 -19.555806 -1.375657 1.057013 0.995279 -5.542165 -1.648152 11.869310 67.181809 -68.121755 -105.670522 0.254957 10.901046 13.292309 -2.578187 -55.730473 -8.511374 -151.477906 80.084014 -142.559320 -7.653849 -11.672319 -6.501925 0.002900 -0.243773 0.019360 0.420273 -57.136485 9.944879 -109.167436 82.048550 -113.696089 5.176068 -5.767727 5.019674 0.097631 0.270846 0.045257
-48.092225 46.509590 6.661737 177.158745 -31.772349 -2.571119 -0.438695 19.195617 1.348285 -0.089733 2.284517 0.197480 -0.152223 3.781184 0.335674 -0.483703 16.615008 1.382396 -3.539367 21.239688 1.406857 -6.807710 3.783117 3.534951 1.005789 1.908622 -1.453015 6.215937 -5.379027 -16.532105 -48.576970 -58.115913 97.443586 -2.436642 1.791691 -19.581594 -1.395305 1.068811 0.990085 -5.540701 -1.664388 11.828115 67.175859 -68.132795 -105.635302 0.251776 10.878977 13.335106 -2.576642 -55.746036 -8.517275 -151.507861 80.088420 -142.593475 -7.661131 -11.667581 -6.501645 0.008340 -0.245682 0.017466 0.437644 -57.150960 9.943367 -109.117717 82.039900 -113.666983 5.176290 -5.755235 5.049952 0.088114 0.261135 0.041586
-48.096111 46.509693 6.662714 177.157169 -31.758056 -2.556891 -0.449270 19.194749 1.343846 -0.090673 2.285548 0.197682 -0.154732 3.781724 0.334134 -0.483686 16.609466 1.377498 -3.529877 21.214931 1.395673 -6.784521 3.718374 3.500394 1.005348 1.935736 -1.433413 6.214891 -5.411690 -16.562698 -48.659680 -58.100780 97.483120 -2.428958 1.828238 -19.557230 -1.421251 1.094520 0.996026 -5.519502 -1.698814 11.798910 67.168939 -68.129176 -105.617995 0.235438 10.878131 13.345956 -2.555441 -55.769325 -8.539752 -151.548701 80.086367 -142.637382 -7.674152 -11.657717 -6.499578 0.018922 -0.251779 0.013826 0.466889 -57.164870 9.918470 -109.086125 82.039889 -113.645310 5.174703 -5.747721 5.066011 0.079147 0.254449 0.038647
